<svg xmlns="http://www.w3.org/2000/svg" version="1.1" xmlns:xlink="http://www.w3.org/1999/xlink" xmlns:svgjs="http://svgjs.com/svgjs" width="1000" height="1000"><rect width="1000" height="1000" rx="0" ry="0" fill="#fcffff"></rect><g transform="matrix(5.524861878453039,0,0,5.524861878453039,-0.9104475579867994,229.28176795580112)"><svg xmlns="http://www.w3.org/2000/svg" version="1.1" xmlns:xlink="http://www.w3.org/1999/xlink" xmlns:svgjs="http://svgjs.com/svgjs" width="181" height="98"><svg width="181" height="98" viewBox="0 0 181 98" fill="none" xmlns="http://www.w3.org/2000/svg">
<path fill-rule="evenodd" clip-rule="evenodd" d="M146.701 40L124.701 73L101.701 40L67.7014 97H81.7014L101.701 66L124.701 97L146.701 66L165.701 97H180.701L146.701 40Z" fill="black"></path>
<path fill-rule="evenodd" clip-rule="evenodd" d="M81.4959 47.1428H44.7014L68.3537 7.27924L55.2014 7L25.0258 58.806L61.0546 59.0714L38.1151 97H52.7015L81.5531 47.241L81.4959 47.1428Z" fill="black"></path>
<path d="M25.3536 98L13.0275 77L0.701416 98H25.3536Z" fill="black"></path>
<path d="M124.701 0L140.701 28H108.701L124.701 0Z" fill="black"></path>
</svg></svg></g></svg>