<?xml version="1.0" standalone="no"?>
<!DOCTYPE svg PUBLIC "-//W3C//DTD SVG 20010904//EN"
 "http://www.w3.org/TR/2001/REC-SVG-20010904/DTD/svg10.dtd">
<svg version="1.0" xmlns="http://www.w3.org/2000/svg"
 width="1448.000000pt" height="1448.000000pt" viewBox="0 0 1448.000000 1448.000000"
 preserveAspectRatio="xMidYMid meet">
<metadata>
Created by potrace 1.14, written by Peter Selinger 2001-2017
</metadata>
<g transform="translate(0.000000,1448.000000) scale(0.100000,-0.100000)"
fill="#000000" stroke="none">
<path d="M9920 11062 c-30 -52 -65 -112 -76 -133 -12 -22 -27 -46 -34 -54 -7
-8 -10 -15 -6 -15 4 0 -9 -24 -29 -52 -19 -29 -35 -57 -35 -61 0 -5 -8 -21
-19 -35 -18 -26 -44 -72 -104 -182 -16 -30 -33 -59 -37 -65 -4 -5 -17 -27 -29
-47 -12 -21 -29 -53 -40 -70 -197 -346 -268 -471 -288 -508 -14 -25 -40 -70
-58 -100 -37 -61 -63 -108 -108 -190 -17 -30 -38 -66 -47 -80 -9 -14 -34 -56
-55 -95 -21 -38 -41 -72 -44 -75 -3 -3 -16 -25 -28 -50 -12 -25 -29 -56 -37
-70 -25 -41 -146 -252 -146 -255 0 -9 60 -9 64 -1 3 7 5 7 5 1 1 -11 74 -11
90 0 5 3 12 1 15 -4 3 -5 21 -6 38 -2 18 4 47 6 63 4 71 -8 91 -8 111 -2 11 4
27 4 34 -1 7 -4 26 -4 41 0 20 6 29 5 29 -3 0 -8 3 -8 11 0 7 7 21 8 39 3 15
-4 33 -4 40 0 7 5 19 6 26 3 22 -8 78 -9 100 -2 11 4 27 4 34 -1 7 -4 26 -4
41 0 20 6 29 5 29 -3 0 -8 3 -8 11 0 6 6 22 8 38 4 28 -7 89 -6 98 2 2 3 17 1
33 -3 20 -6 30 -5 34 3 2 7 5 7 5 2 1 -10 78 -11 88 -2 2 3 20 1 39 -3 19 -4
36 -5 39 0 2 4 25 4 49 0 25 -4 51 -3 58 1 6 4 19 4 29 -1 9 -5 19 -7 22 -4 6
6 42 6 102 1 17 -1 40 1 52 5 12 4 25 3 28 -1 3 -5 20 -6 38 -2 18 5 41 6 52
4 11 -2 50 -3 88 -3 74 1 80 1 150 -1 27 -1 51 1 53 4 3 3 18 1 34 -3 20 -6
30 -5 34 3 2 7 5 7 5 2 1 -11 74 -11 90 0 5 3 12 1 15 -4 3 -5 21 -6 38 -2 18
4 47 6 63 4 71 -8 91 -8 111 -2 11 4 27 4 34 -1 7 -4 26 -4 41 0 19 6 29 5 29
-2 0 -7 4 -7 13 -1 6 5 23 7 36 4 38 -10 91 -1 91 15 0 8 -4 14 -9 14 -5 0
-14 15 -22 33 -7 17 -15 34 -18 37 -7 6 -27 40 -55 95 -12 22 -27 46 -33 53
-7 7 -13 20 -13 28 0 8 -4 14 -10 14 -5 0 -10 9 -10 19 0 11 -4 21 -8 23 -5 2
-35 50 -68 108 -32 57 -63 112 -69 121 -13 20 -67 118 -103 184 -15 27 -32 55
-39 62 -6 7 -15 23 -19 36 -3 12 -12 29 -19 37 -7 8 -25 38 -40 65 -32 59
-102 184 -115 205 -5 8 -37 64 -72 125 -35 60 -69 119 -75 130 -7 11 -22 38
-32 61 -11 22 -29 51 -39 65 -9 13 -27 42 -37 64 -11 22 -22 42 -25 45 -6 6
-21 33 -63 110 -17 30 -38 66 -47 80 -9 14 -23 40 -31 58 -8 17 -17 32 -21 32
-5 0 -8 4 -8 9 0 6 -31 64 -70 130 -38 66 -70 122 -70 126 0 4 -8 17 -18 29
l-18 23 -54 -95z"/>
<path d="M4407 10578 c-14 -18 -65 -103 -113 -188 -49 -85 -92 -156 -96 -158
-5 -2 -8 -8 -8 -12 0 -8 -35 -70 -87 -155 -7 -11 -15 -27 -19 -35 -4 -8 -26
-46 -49 -85 -23 -38 -77 -131 -120 -205 -43 -74 -97 -166 -120 -205 -23 -38
-59 -101 -80 -140 -22 -38 -43 -71 -47 -73 -4 -2 -8 -8 -8 -12 0 -5 -36 -70
-80 -146 -44 -75 -80 -140 -80 -145 0 -5 -4 -9 -9 -9 -5 0 -12 -9 -16 -19 -3
-11 -33 -65 -66 -119 -32 -55 -59 -105 -59 -111 0 -6 -4 -11 -8 -11 -5 0 -22
-26 -39 -57 -17 -32 -61 -110 -98 -173 -37 -63 -79 -135 -93 -160 -31 -55 -63
-109 -80 -135 -7 -11 -15 -28 -18 -37 -4 -10 -10 -18 -14 -18 -5 0 -12 -10
-16 -22 -4 -13 -18 -40 -31 -61 -22 -35 -49 -81 -77 -132 -6 -11 -30 -51 -53
-90 -23 -38 -96 -164 -164 -280 -67 -115 -130 -223 -140 -240 -11 -16 -22 -37
-26 -45 -4 -8 -40 -71 -80 -139 -40 -67 -73 -127 -73 -132 0 -5 -4 -9 -10 -9
-5 0 -10 -5 -10 -11 0 -5 -44 -85 -98 -177 -54 -92 -104 -179 -112 -194 -7
-16 -17 -28 -22 -28 -4 0 -8 -6 -8 -13 0 -7 -16 -37 -35 -67 -19 -30 -35 -59
-35 -65 0 -10 175 -12 1453 -20 318 -2 581 -5 584 -8 3 -3 15 -2 28 3 13 5 25
7 27 5 3 -3 53 -5 121 -5 9 0 32 -1 50 -2 17 -2 42 0 55 4 12 4 22 4 22 0 0
-4 115 -7 256 -7 141 0 260 -2 264 -5 4 -3 -7 -30 -26 -60 -19 -30 -37 -63
-40 -72 -4 -10 -10 -18 -15 -18 -5 0 -9 -4 -9 -9 0 -5 -52 -94 -115 -197 -64
-104 -120 -201 -126 -216 -6 -16 -14 -28 -18 -28 -4 0 -17 -19 -30 -42 -12
-24 -53 -94 -91 -156 -38 -63 -100 -164 -137 -225 -37 -62 -70 -114 -73 -117
-3 -3 -12 -19 -21 -35 -43 -81 -54 -100 -60 -105 -3 -3 -57 -90 -120 -195 -62
-104 -117 -191 -121 -193 -5 -2 -8 -12 -8 -23 0 -10 -4 -19 -10 -19 -5 0 -10
-7 -10 -15 0 -8 -4 -15 -8 -15 -5 0 -16 -15 -25 -33 -20 -39 -41 -74 -146
-245 -44 -73 -81 -135 -81 -138 0 -3 -5 -10 -10 -17 -18 -20 -220 -358 -220
-367 0 -5 -4 -10 -8 -12 -5 -1 -25 -32 -46 -68 -20 -36 -55 -94 -76 -129 -22
-34 -40 -67 -40 -72 0 -5 -4 -9 -10 -9 -5 0 -10 -4 -10 -10 0 -5 -16 -34 -35
-65 -20 -30 -39 -63 -42 -73 -4 -9 -13 -23 -20 -31 -23 -22 -22 -22 112 -22
39 0 86 1 105 2 19 1 40 1 45 0 54 -4 104 -3 113 3 6 3 13 2 17 -4 4 -6 13 -7
23 -2 9 5 28 6 42 2 14 -4 33 -3 43 2 11 6 17 5 17 -2 0 -7 6 -8 17 -1 9 5 26
6 37 1 12 -4 30 -4 41 0 11 4 29 4 40 0 11 -4 28 -4 37 -1 10 3 50 4 88 1 39
-3 75 -1 79 3 5 5 12 4 15 -2 5 -7 13 -8 25 -2 9 5 23 6 30 1 8 -4 25 -5 40
-1 14 3 40 5 56 4 44 -4 127 -3 134 2 4 2 20 28 35 57 15 29 33 62 39 73 28
46 59 98 76 128 43 74 135 235 153 267 11 19 23 37 27 40 3 3 14 21 23 40 10
19 29 55 44 80 14 25 48 83 75 128 27 46 49 87 49 91 0 5 9 18 20 31 11 13 20
29 20 37 0 7 4 13 8 13 5 0 14 16 22 35 8 19 17 35 21 35 4 0 11 10 15 23 3
12 12 29 19 37 7 8 25 40 41 70 16 30 32 57 35 60 3 3 19 30 36 60 16 30 51
90 76 133 26 43 47 83 47 88 0 5 4 9 8 9 5 0 14 16 22 35 8 19 16 35 19 35 4
0 12 15 20 32 8 18 17 35 21 38 4 3 13 17 21 32 17 33 65 117 180 315 49 83
97 167 107 185 43 74 153 264 161 278 6 8 47 79 93 158 46 79 88 151 93 160 6
9 30 53 55 97 24 44 50 86 57 93 7 7 13 17 13 21 0 5 25 50 55 100 30 51 55
94 55 97 0 3 8 18 19 32 15 23 39 64 95 167 6 11 14 22 17 25 3 3 12 20 20 38
8 17 17 32 21 32 5 0 8 7 8 15 0 8 4 15 9 15 5 0 11 8 14 18 3 9 22 44 42 77
19 33 40 69 46 80 5 11 15 29 22 40 7 11 30 52 52 90 21 39 41 72 44 75 10 8
31 49 31 59 0 6 -578 9 -1462 10 -805 0 -1467 0 -1471 1 -7 0 29 76 43 90 7 7
29 43 37 60 4 8 18 33 32 55 14 22 30 49 36 60 43 78 130 221 137 223 4 2 8
12 8 21 0 10 9 26 20 36 11 10 20 22 20 26 0 5 32 61 70 125 39 65 70 121 70
126 0 4 4 8 9 8 5 0 11 8 14 18 4 9 17 35 30 57 139 231 237 399 237 405 0 5
4 10 8 12 6 2 41 60 142 233 9 17 52 89 95 160 43 72 85 144 95 160 82 142
136 232 147 243 7 7 13 18 13 22 0 9 26 53 178 305 30 50 65 108 77 130 13 22
46 78 74 123 28 46 51 87 51 92 0 5 6 15 13 22 17 19 47 69 54 91 3 9 9 17 14
17 5 0 9 5 9 10 0 6 18 39 40 74 22 35 40 68 40 75 0 6 4 11 9 11 5 0 11 8 14
18 3 9 14 29 23 44 10 15 16 29 13 32 -4 4 -250 11 -811 21 -109 2 -202 6
-207 9 -5 4 -21 -8 -34 -26z"/>
<path d="M8121 7931 c-8 -17 -17 -31 -22 -31 -5 0 -9 -6 -9 -14 0 -8 -6 -21
-12 -28 -7 -8 -19 -25 -27 -38 -8 -14 -55 -94 -105 -178 -50 -83 -96 -161
-101 -171 -6 -10 -16 -25 -23 -33 -6 -8 -9 -18 -5 -21 3 -4 2 -7 -3 -7 -5 0
-18 -17 -29 -37 -10 -21 -24 -45 -31 -53 -7 -8 -23 -34 -36 -57 -47 -86 -131
-228 -144 -243 -7 -8 -24 -37 -39 -65 -14 -27 -39 -70 -55 -95 -16 -25 -35
-56 -43 -70 -29 -53 -150 -256 -168 -282 -11 -15 -19 -30 -19 -33 0 -4 -13
-26 -30 -50 -16 -24 -30 -47 -30 -50 0 -4 -13 -27 -30 -52 -16 -24 -30 -46
-30 -48 0 -2 -21 -39 -47 -82 -27 -43 -52 -86 -58 -95 -80 -138 -120 -204
-125 -208 -3 -3 -11 -16 -18 -30 -7 -14 -18 -34 -25 -45 -7 -11 -32 -54 -57
-95 -24 -41 -48 -78 -53 -81 -5 -3 -9 -10 -9 -15 -1 -5 -12 -26 -24 -46 -13
-21 -24 -40 -24 -43 0 -2 -17 -31 -37 -62 -21 -32 -36 -61 -35 -65 1 -5 -2 -8
-8 -8 -5 0 -10 -7 -10 -15 0 -8 -4 -15 -9 -15 -5 0 -11 -8 -14 -17 -4 -10 -20
-40 -37 -68 -17 -27 -35 -59 -40 -70 -6 -11 -35 -60 -65 -109 -30 -49 -55 -91
-55 -94 0 -3 -11 -19 -23 -36 -13 -17 -26 -36 -28 -41 -5 -12 -105 -183 -131
-223 -10 -15 -21 -34 -25 -42 -5 -8 -24 -41 -43 -73 -19 -32 -44 -73 -55 -93
-11 -19 -59 -100 -107 -179 -49 -80 -88 -150 -88 -155 0 -6 -4 -10 -9 -10 -5
0 -11 -8 -15 -17 -3 -10 -30 -58 -60 -108 -48 -78 -86 -142 -146 -244 -81
-137 -106 -176 -112 -179 -5 -2 -8 -8 -8 -14 0 -6 -17 -38 -39 -72 -21 -34
-46 -76 -56 -95 -15 -29 -15 -33 -1 -28 8 3 18 2 21 -4 4 -5 13 -6 22 -1 8 5
33 6 54 2 21 -4 39 -4 39 1 0 5 11 4 25 -1 14 -5 25 -6 25 -1 0 5 15 6 33 2
17 -4 43 -5 57 -1 13 3 46 3 73 0 26 -4 50 -3 53 2 3 5 11 5 18 -1 6 -5 17 -6
25 -2 7 4 30 5 52 1 21 -4 39 -4 39 -1 0 4 15 6 33 4 65 -6 144 -6 155 1 6 3
13 2 17 -4 4 -6 12 -7 24 -1 9 5 23 6 30 1 8 -4 25 -5 40 -1 14 3 40 5 56 4
17 -2 44 -3 60 -2 17 0 36 0 43 0 27 -2 43 -2 76 0 37 1 37 1 157 194 24 39
46 72 49 75 3 3 33 47 65 98 33 52 67 104 75 117 8 13 28 45 44 72 16 26 32
50 36 53 4 3 15 21 26 40 10 19 24 40 29 47 6 7 15 18 21 25 5 7 12 18 14 23
4 11 64 105 141 224 27 41 49 77 49 82 0 4 4 9 8 11 4 2 21 26 37 53 15 28 31
52 35 55 3 3 17 23 30 45 13 22 28 45 32 50 5 6 51 78 104 160 53 83 112 175
132 205 20 30 43 67 51 83 8 15 18 27 23 27 4 0 8 4 8 10 0 5 42 74 93 152 52
79 100 154 107 167 7 14 17 30 22 35 14 17 188 287 188 292 0 9 52 74 60 74 3
0 24 -24 44 -54 21 -30 48 -67 62 -83 13 -15 24 -31 24 -34 0 -3 8 -15 18 -27
10 -11 45 -57 77 -101 33 -45 124 -167 203 -272 78 -105 142 -195 142 -199 0
-5 4 -10 8 -12 5 -1 31 -34 60 -73 28 -38 55 -74 59 -80 5 -5 39 -53 78 -105
38 -52 72 -97 75 -100 3 -3 30 -39 60 -80 29 -41 62 -84 72 -94 10 -11 18 -23
18 -26 0 -5 49 -73 98 -135 4 -5 23 -32 42 -60 19 -27 40 -54 46 -60 6 -5 28
-35 49 -65 22 -30 42 -57 45 -60 3 -3 23 -29 44 -59 21 -30 43 -59 48 -65 5
-6 78 -105 163 -221 85 -115 167 -225 182 -244 16 -18 32 -41 37 -49 12 -21
69 -96 78 -102 6 -5 78 82 78 95 0 3 5 11 10 18 14 16 62 80 78 103 119 172
276 390 283 392 5 2 9 8 9 13 0 11 271 393 282 397 4 2 8 8 8 13 0 5 47 75
106 156 58 82 116 164 130 183 43 60 123 174 136 194 7 10 18 24 23 30 6 6 35
47 65 91 30 44 58 82 62 83 4 2 8 10 8 17 0 8 6 18 13 22 6 4 36 44 66 88 30
44 64 92 75 107 12 14 41 56 66 93 25 37 50 72 55 78 6 7 48 66 94 132 46 66
92 130 101 142 16 21 18 19 101 -115 46 -75 86 -141 88 -146 2 -6 12 -20 22
-31 10 -11 18 -23 18 -28 0 -4 16 -31 34 -60 18 -28 42 -68 53 -87 10 -19 21
-37 24 -40 3 -3 12 -16 20 -30 18 -32 151 -249 220 -360 29 -47 59 -96 67
-110 8 -14 26 -44 41 -67 32 -51 150 -245 173 -285 9 -15 22 -35 29 -43 17
-21 49 -76 56 -98 4 -9 10 -17 15 -17 5 0 9 -4 9 -9 0 -9 59 -110 70 -121 5
-4 59 -94 105 -172 53 -91 212 -346 222 -356 7 -7 13 -17 13 -22 0 -8 36 -67
57 -95 5 -5 14 -21 21 -35 13 -27 62 -112 69 -119 3 -4 67 -13 88 -12 6 0 42
0 80 0 39 0 86 1 105 2 19 1 40 1 45 0 54 -4 104 -3 113 3 6 3 13 2 17 -4 4
-6 13 -7 23 -2 9 5 28 6 42 2 14 -4 33 -3 43 2 11 6 17 5 17 -2 0 -7 6 -8 17
-1 9 5 26 6 37 1 12 -4 30 -4 41 0 11 4 29 4 40 0 11 -4 28 -4 37 -1 10 3 50
4 89 1 39 -3 73 -2 76 3 3 4 10 4 17 -2 6 -6 18 -6 25 -2 8 5 26 5 41 1 15 -4
34 -3 43 2 11 6 17 5 17 -2 0 -7 6 -8 17 -1 10 5 26 5 39 1 12 -5 24 -6 27 -3
3 3 23 5 44 5 21 0 32 3 26 5 -7 3 -13 8 -13 13 0 7 -367 627 -408 690 -9 14
-17 27 -17 30 0 3 -8 16 -17 30 -33 51 -128 211 -128 216 0 3 -13 25 -30 49
-16 24 -30 48 -30 53 0 6 -4 12 -8 14 -9 4 -92 146 -92 158 0 5 -4 10 -8 12
-4 2 -39 56 -77 121 -39 65 -78 130 -87 145 -9 15 -23 38 -31 52 -24 46 -209
354 -233 391 -13 19 -24 40 -24 45 0 6 -9 19 -20 29 -11 10 -17 21 -15 25 3 4
-2 13 -10 20 -8 7 -15 19 -15 26 0 8 -4 14 -10 14 -5 0 -10 5 -10 10 0 6 -22
46 -50 90 -27 44 -50 84 -50 89 0 5 -3 11 -7 13 -10 4 -42 57 -50 81 -3 9 -9
17 -14 17 -5 0 -9 5 -9 11 0 7 -18 40 -40 75 -22 35 -40 68 -40 74 0 5 -4 10
-10 10 -5 0 -10 4 -10 9 0 5 -25 50 -55 99 -30 50 -55 93 -55 96 0 4 -5 12
-11 19 -6 7 -57 91 -114 187 -57 96 -109 180 -114 187 -6 7 -11 14 -11 17 0 9
-84 151 -92 154 -4 2 -8 7 -8 12 0 8 -13 31 -237 404 -79 131 -143 240 -143
241 0 2 -16 27 -35 56 -19 30 -35 57 -35 62 0 4 -5 13 -10 20 -13 15 -176 284
-189 312 -6 11 -18 32 -29 47 l-18 28 -35 -56 c-19 -31 -38 -61 -44 -67 -23
-28 -115 -169 -115 -177 0 -6 -3 -10 -8 -10 -4 0 -16 -17 -27 -37 -11 -20 -24
-41 -30 -47 -5 -6 -44 -63 -85 -126 -41 -63 -79 -119 -83 -125 -26 -33 -247
-370 -247 -377 0 -4 -3 -8 -8 -8 -4 0 -16 -17 -27 -37 -11 -20 -25 -41 -30
-47 -6 -6 -22 -29 -35 -51 -13 -22 -32 -49 -42 -59 -10 -11 -18 -26 -18 -33 0
-7 -3 -13 -8 -13 -4 0 -16 -17 -27 -37 -11 -20 -24 -41 -30 -47 -5 -6 -44 -63
-85 -126 -41 -63 -77 -117 -80 -120 -3 -3 -39 -57 -80 -120 -41 -63 -77 -117
-80 -120 -3 -3 -30 -43 -60 -90 -30 -47 -57 -87 -60 -90 -10 -10 -50 -69 -50
-75 0 -3 -9 -15 -20 -27 -11 -12 -20 -28 -20 -35 0 -7 -4 -13 -10 -13 -5 0
-10 -5 -10 -10 0 -6 -5 -16 -10 -23 -22 -25 -170 -250 -170 -258 0 -4 -3 -9
-7 -11 -5 -1 -32 -40 -62 -85 l-54 -82 -21 29 c-12 16 -36 51 -54 77 -18 26
-60 86 -93 133 -32 47 -64 92 -69 100 -13 18 -103 146 -127 178 -9 13 -22 32
-27 42 -11 19 -95 139 -191 275 -31 44 -104 148 -161 230 -57 83 -107 155
-112 160 -4 6 -28 39 -52 75 -24 36 -47 67 -52 68 -4 2 -8 8 -8 13 0 5 -19 35
-42 68 -24 32 -49 67 -56 77 -7 11 -39 57 -72 104 -33 47 -65 94 -72 104 -7
10 -28 39 -45 63 -18 24 -33 47 -33 52 0 4 -9 16 -20 26 -11 10 -20 24 -20 31
0 7 -4 14 -8 16 -4 2 -33 39 -63 83 -29 44 -56 82 -59 85 -3 3 -30 41 -60 85
-30 44 -58 85 -62 90 -17 21 -208 297 -208 301 0 2 -7 12 -15 21 -8 10 -21 26
-28 37 -13 17 -14 17 -26 -13z"/>
<path d="M1010 4947 c-14 -23 -27 -46 -29 -52 -2 -5 -7 -12 -10 -15 -3 -3 -15
-23 -26 -45 -11 -22 -22 -42 -25 -45 -8 -7 -27 -40 -51 -87 -13 -24 -27 -43
-31 -43 -5 0 -7 -4 -4 -9 3 -5 -1 -14 -9 -21 -8 -7 -15 -16 -15 -21 0 -9 -59
-109 -69 -119 -4 -3 -14 -21 -23 -40 -10 -19 -22 -42 -28 -50 -35 -53 -300
-511 -300 -519 0 -5 -3 -11 -8 -13 -6 -3 -220 -363 -294 -495 l-29 -53 980 0
c540 0 981 2 981 6 0 9 -158 285 -177 309 -5 6 -14 21 -21 35 -7 14 -21 39
-31 55 -19 30 -107 181 -143 244 -37 65 -151 256 -174 293 -13 21 -24 40 -24
43 0 3 -21 40 -47 83 -27 42 -55 91 -63 107 -8 17 -19 35 -23 40 -16 20 -107
178 -107 187 0 4 -4 8 -9 8 -5 0 -11 8 -14 18 -3 9 -19 38 -34 64 -15 25 -45
76 -66 112 -21 36 -41 66 -45 66 -4 0 -18 -19 -32 -43z"/>
</g>
</svg>
